<svg xmlns="http://www.w3.org/2000/svg" width="145.96849570640052" height="182.42519682674254" version="1.1" style=""><rect id="backgroundrect" width="100%" height="100%" x="0" y="0" fill="none" stroke="none" class="selected" style=""/>
<defs>
<clipPath id="clip-path">
<path d="m138.05 37.577-58.78-33.92a12.3 12.3 0 0 0-12.33 0l-58.79 33.92a12.37 12.37 0 0 0-6.15 10.69v67.89a12.33 12.33 0 0 0 6.15 10.66l29.41 17v34.66a3.7 3.7 0 0 0 5.55 3.19l95-54.82a12.3 12.3 0 0 0 6.15-10.66v-67.93a12.4 12.4 0 0 0-6.21-10.68z" fill="none" id="svg_1"/>
</clipPath>
</defs>


<g class="currentLayer" style=""><title>Layer 1</title><g clip-path="url(#clip-path)" id="svg_2" class="">
<path d="m144.2 41.157-71.08 41.05-71.12-41.05v82.1l35.56 20.51v41.06l106.64-61.57z" fill="#084d6e" id="svg_3"/>
<g fill="#084d6e" stroke="#1a1a1a" id="svg_4">
<path d="m73.12 82.207-71.12-41.05 71.12-41.05 71.08 41.05z" id="svg_5"/>
<path d="m71.86 80.957-69.41-40.07-0.45 0.27 71.12 41.05 71.08-41.05-1.67-0.99z" id="svg_6"/>
<path d="m73.12 82.717v-0.51l-70.67-40.81-0.45 0.27z" id="svg_7"/>
</g>
</g><image id="svg_11" x="536" y="115" width="2" height="1" xmlns:xlink="http://www.w3.org/1999/xlink" xlink:href="logo/vector_paint_icon256.png" style="color: rgb(0, 0, 0);"/></g></svg>