<?xml version="1.0" encoding="utf-8"?>
<!-- Generator: Adobe Illustrator 16.0.0, SVG Export Plug-In . SVG Version: 6.00 Build 0)  -->
<!DOCTYPE svg PUBLIC "-//W3C//DTD SVG 1.1 Tiny//EN" "http://www.w3.org/Graphics/SVG/1.1/DTD/svg11-tiny.dtd">
<svg version="1.1" baseProfile="tiny" xmlns="http://www.w3.org/2000/svg" xmlns:xlink="http://www.w3.org/1999/xlink" x="0px"
	 y="0px" width="80px" height="80px" viewBox="0 0 80 80" xml:space="preserve">
<g id="Calque_1">
	<path fill="#232323" d="M49.504,44.676c0.543,0.271,0.918,0.694,1.118,1.271c0.208,0.575,0.172,1.14-0.1,1.683
		c-0.612,1.767-2.038,4.009-4.281,6.728c-0.408,0.407-0.904,0.665-1.479,0.766c-0.576,0.103-1.103,0.017-1.578-0.254l-2.958-1.734
		c-1.699,1.427-3.569,2.515-5.608,3.262v3.466c0,0.547-0.2,1.051-0.607,1.529c-0.408,0.476-0.889,0.744-1.432,0.815
		c-2.582,0.477-5.164,0.477-7.746,0c-0.608-0.071-1.104-0.34-1.479-0.815c-0.372-0.479-0.56-0.982-0.56-1.529v-3.466
		c-2.103-0.747-3.974-1.835-5.604-3.262l-2.958,1.734c-0.543,0.271-1.103,0.356-1.679,0.254c-0.583-0.101-1.04-0.358-1.379-0.766
		C9,51.707,7.572,49.463,6.892,47.629c-0.271-0.543-0.307-1.107-0.104-1.683c0.208-0.576,0.58-1,1.119-1.271l3.366-1.735
		c-0.408-2.174-0.408-4.316,0-6.421l-3.366-1.736c-0.54-0.34-0.911-0.779-1.119-1.324c-0.204-0.545-0.168-1.085,0.104-1.632
		c0.68-1.832,2.107-4.077,4.281-6.726c0.34-0.474,0.796-0.764,1.379-0.868c0.577-0.102,1.136,0.019,1.679,0.358l2.958,1.63
		c1.695-1.427,3.565-2.482,5.604-3.159v-3.468c0-0.61,0.188-1.137,0.56-1.579c0.375-0.442,0.871-0.698,1.479-0.766
		c2.583-0.474,5.164-0.507,7.746-0.102c0.543,0.138,1.023,0.426,1.432,0.868c0.408,0.442,0.607,0.969,0.607,1.579v3.468
		c2.039,0.748,3.909,1.801,5.608,3.159l2.958-1.63c0.476-0.34,1.002-0.46,1.578-0.358c0.575,0.104,1.071,0.394,1.479,0.868
		c2.174,2.582,3.602,4.826,4.281,6.726c0.203,0.547,0.219,1.087,0.052,1.632c-0.173,0.545-0.527,0.984-1.07,1.324l-3.466,1.736
		c0.403,2.104,0.403,4.247,0,6.421L49.504,44.676z M36.048,39.271c-0.137-1.835-0.851-3.417-2.143-4.74
		c-1.29-1.326-2.884-2.057-4.787-2.192c-2.039-0.135-3.982,0.542-5.813,2.037c-1.426,1.837-2.073,3.773-1.937,5.811
		c0.067,1.834,0.764,3.416,2.09,4.739c1.327,1.324,2.902,2.022,4.74,2.091c2.039,0.136,4.009-0.511,5.916-1.936
		C35.537,43.245,36.184,41.31,36.048,39.271z M58.065,34.682c-0.136,0.274-0.356,0.459-0.665,0.563
		c-0.303,0.101-0.59,0.119-0.863,0.052c-1.223-0.476-2.31-1.123-3.261-1.938c-0.275-0.205-0.428-0.461-0.465-0.765
		c-0.031-0.307,0.021-0.596,0.152-0.867l0.82-1.428c-0.68-0.816-1.223-1.733-1.632-2.752h-1.63c-0.34,0-0.628-0.101-0.868-0.306
		c-0.24-0.204-0.359-0.475-0.359-0.814c-0.268-1.224-0.304-2.483-0.097-3.772c0.064-0.271,0.216-0.51,0.456-0.713
		c0.24-0.205,0.528-0.307,0.868-0.307h1.63c0.409-1.02,0.952-1.971,1.632-2.856l-0.82-1.425c-0.132-0.274-0.184-0.562-0.152-0.867
		c0.037-0.306,0.189-0.562,0.465-0.766c0.951-0.746,2.038-1.358,3.261-1.832c0.273-0.136,0.561-0.154,0.863-0.052
		c0.309,0.102,0.529,0.29,0.665,0.56l0.815,1.529c1.086-0.204,2.173-0.204,3.262,0l0.813-1.529c0.137-0.27,0.36-0.458,0.665-0.56
		c0.304-0.102,0.591-0.084,0.868,0.052c1.223,0.406,2.31,1.019,3.257,1.832c0.275,0.204,0.427,0.46,0.463,0.766
		c0.033,0.306-0.015,0.593-0.155,0.867l-0.812,1.425c0.68,0.885,1.223,1.836,1.627,2.856h1.63c0.34,0,0.633,0.102,0.868,0.307
		c0.24,0.203,0.356,0.441,0.356,0.713c0.275,1.289,0.275,2.548,0,3.772c0,0.34-0.116,0.611-0.356,0.814
		c-0.235,0.205-0.528,0.306-0.868,0.306h-1.63c-0.404,1.02-0.947,1.936-1.627,2.752l0.812,1.428c0.141,0.271,0.188,0.56,0.155,0.867
		c-0.036,0.304-0.188,0.56-0.463,0.765c-0.947,0.814-2.034,1.461-3.257,1.938c-0.277,0.067-0.564,0.049-0.868-0.052
		c-0.305-0.103-0.528-0.288-0.665-0.563l-0.813-1.428c-1.089,0.206-2.176,0.206-3.262,0L58.065,34.682z M58.065,65.164
		c-0.136,0.272-0.356,0.457-0.665,0.561c-0.303,0.103-0.59,0.119-0.863,0.048c-1.223-0.472-2.31-1.118-3.261-1.934
		c-0.275-0.208-0.428-0.462-0.465-0.764c-0.031-0.309,0.021-0.596,0.152-0.869l0.82-1.431c-0.68-0.812-1.223-1.727-1.632-2.748
		h-1.63c-0.34,0-0.628-0.104-0.868-0.306c-0.24-0.204-0.359-0.479-0.359-0.816c-0.268-1.223-0.304-2.481-0.097-3.771
		c0.064-0.272,0.216-0.512,0.456-0.711c0.24-0.21,0.528-0.309,0.868-0.309h1.63c0.409-1.02,0.952-1.972,1.632-2.855l-0.82-1.426
		c-0.132-0.272-0.184-0.561-0.152-0.862c0.037-0.313,0.189-0.564,0.465-0.77c0.951-0.814,2.038-1.426,3.261-1.833
		c0.273-0.137,0.561-0.156,0.863-0.053c0.309,0.104,0.529,0.289,0.665,0.56l0.815,1.431c1.086-0.135,2.173-0.104,3.262,0.101
		l0.813-1.531c0.137-0.271,0.36-0.455,0.665-0.56c0.304-0.104,0.591-0.084,0.868,0.053c1.223,0.407,2.31,1.019,3.257,1.833
		c0.275,0.205,0.427,0.457,0.463,0.77c0.033,0.302-0.015,0.59-0.155,0.862l-0.812,1.426c0.68,0.884,1.223,1.836,1.627,2.855h1.63
		c0.34,0,0.633,0.099,0.868,0.309c0.24,0.199,0.356,0.438,0.356,0.711c0.275,1.29,0.275,2.549,0,3.771
		c0,0.338-0.116,0.612-0.356,0.816c-0.235,0.201-0.528,0.306-0.868,0.306h-1.63c-0.404,1.021-0.947,1.937-1.627,2.748l0.812,1.431
		c0.141,0.273,0.188,0.561,0.155,0.869c-0.036,0.302-0.188,0.556-0.463,0.764c-0.947,0.815-2.034,1.462-3.257,1.934
		c-0.277,0.071-0.564,0.055-0.868-0.048c-0.305-0.104-0.528-0.288-0.665-0.561l-0.813-1.431c-1.089,0.21-2.176,0.21-3.262,0
		L58.065,65.164z M61.582,28.109c1.255-0.375,2.071-1.189,2.446-2.446c0.377-1.258,0.084-2.533-0.863-3.824
		c-1.223-0.954-2.466-1.224-3.726-0.817c-1.255,0.41-2.07,1.241-2.445,2.498c-0.373,1.259-0.084,2.498,0.867,3.721
		C59.087,28.193,60.327,28.482,61.582,28.109z M61.582,58.537c1.255-0.409,2.071-1.223,2.446-2.445
		c0.377-1.224,0.084-2.482-0.863-3.774c-1.223-0.95-2.466-1.223-3.726-0.815c-1.255,0.408-2.07,1.239-2.445,2.494
		c-0.373,1.263-0.084,2.502,0.867,3.726C59.087,58.674,60.327,58.944,61.582,58.537z"/>
</g>
<g id="photo">
</g>
</svg>
