<?xml version="1.0" encoding="utf-8"?>
<!-- Generator: Adobe Illustrator 16.0.0, SVG Export Plug-In . SVG Version: 6.00 Build 0)  -->
<!DOCTYPE svg PUBLIC "-//W3C//DTD SVG 1.1 Tiny//EN" "http://www.w3.org/Graphics/SVG/1.1/DTD/svg11-tiny.dtd">
<svg version="1.1" baseProfile="tiny" xmlns="http://www.w3.org/2000/svg" xmlns:xlink="http://www.w3.org/1999/xlink" x="0px"
	 y="0px" width="80px" height="80px" viewBox="0 0 80 80" xml:space="preserve">
<g id="Calque_1">
	<path fill="#232323" d="M19.701,21.701c-0.578-0.128-0.981-0.418-1.21-0.867c-0.223-0.453-0.223-0.905,0-1.356
		c0.229-0.451,0.632-0.741,1.21-0.87l18.367-4.445c1.288-0.257,2.576-0.257,3.865,0l18.368,4.445
		c0.574,0.129,0.979,0.419,1.204,0.87c0.228,0.451,0.228,0.903,0,1.356c-0.226,0.449-0.63,0.739-1.204,0.867l-9.283,2.224
		c0.902,1.805,1.354,3.639,1.354,5.511c0,2.253-0.546,4.332-1.645,6.233c-1.093,1.901-2.594,3.399-4.495,4.495
		c-1.898,1.096-3.979,1.643-6.232,1.643c-2.254,0-4.335-0.547-6.237-1.643c-1.896-1.096-3.396-2.594-4.492-4.495
		c-1.095-1.901-1.642-3.98-1.642-6.233c0-1.872,0.447-3.706,1.35-5.511l-6.375-1.547v5.125c0.771,0.45,1.159,1.078,1.159,1.882
		c0,0.806-0.355,1.468-1.068,1.981l1.456,5.994c0.129,0.322,0.113,0.628-0.054,0.919c-0.159,0.288-0.367,0.432-0.629,0.432h-4.057
		c-0.256,0-0.47-0.144-0.627-0.432c-0.16-0.291-0.179-0.597-0.05-0.919l1.451-5.994c-0.713-0.513-1.063-1.175-1.063-1.981
		c0-0.804,0.385-1.432,1.157-1.882v-5.705L19.701,21.701z M49.182,44.996c2.319,0.064,4.43,0.693,6.332,1.885
		c1.9,1.192,3.4,2.757,4.492,4.688c1.1,1.936,1.644,4.029,1.644,6.284v0.967c0,1.286-0.451,2.385-1.348,3.286
		c-0.903,0.902-2.002,1.354-3.291,1.354H22.989c-1.288,0-2.386-0.451-3.288-1.354c-0.902-0.901-1.354-2-1.354-3.286v-0.967
		c0-2.255,0.551-4.349,1.643-6.284c1.099-1.931,2.596-3.495,4.494-4.688c1.903-1.191,4.015-1.82,6.334-1.885L40,54.18L49.182,44.996
		z"/>
</g>
<g id="photo">
</g>
</svg>
