<?xml version="1.0" encoding="utf-8"?>
<!-- Generator: Adobe Illustrator 16.0.0, SVG Export Plug-In . SVG Version: 6.00 Build 0)  -->
<!DOCTYPE svg PUBLIC "-//W3C//DTD SVG 1.1 Tiny//EN" "http://www.w3.org/Graphics/SVG/1.1/DTD/svg11-tiny.dtd">
<svg version="1.1" baseProfile="tiny" xmlns="http://www.w3.org/2000/svg" xmlns:xlink="http://www.w3.org/1999/xlink" x="0px"
	 y="0px" width="80px" height="80px" viewBox="0 0 80 80" xml:space="preserve">
<g id="Calque_1">
	<path fill="#232323" d="M59.938,26.534c1.233,0,2.322,0.472,3.265,1.414c0.94,0.941,1.411,2.028,1.411,3.262v7.792H14.747v-7.792
		c0-1.234,0.469-2.321,1.412-3.262c0.938-0.942,2.026-1.414,3.261-1.414h7.795v-4.674c0-1.233,0.466-2.321,1.408-3.263
		c0.941-0.941,2.032-1.413,3.262-1.413h15.591c1.229,0,2.319,0.472,3.258,1.413c0.946,0.942,1.415,2.03,1.415,3.263v4.674H59.938z
		 M45.914,46.795v-4.676h18.699v14.026c0,1.234-0.471,2.321-1.411,3.255c-0.942,0.946-2.031,1.416-3.265,1.416H19.42
		c-1.234,0-2.322-0.47-3.261-1.416c-0.943-0.934-1.412-2.021-1.412-3.255V42.119h18.699v4.676c0,0.456,0.142,0.824,0.436,1.12
		c0.295,0.29,0.67,0.438,1.123,0.438h9.349c0.459,0,0.83-0.148,1.126-0.438C45.766,47.619,45.914,47.251,45.914,46.795z
		 M45.914,26.534v-3.115H33.446v3.115H45.914z"/>
</g>
<g id="photo">
</g>
</svg>
