<?xml version="1.0" encoding="utf-8"?>
<!-- Generator: Adobe Illustrator 16.0.0, SVG Export Plug-In . SVG Version: 6.00 Build 0)  -->
<!DOCTYPE svg PUBLIC "-//W3C//DTD SVG 1.1 Tiny//EN" "http://www.w3.org/Graphics/SVG/1.1/DTD/svg11-tiny.dtd">
<svg version="1.1" baseProfile="tiny" xmlns="http://www.w3.org/2000/svg" xmlns:xlink="http://www.w3.org/1999/xlink" x="0px"
	 y="0px" width="80px" height="80px" viewBox="0 0 80 80" xml:space="preserve">
<g id="Calque_1">
	<path fill="#232323" d="M49.288,60.816v0.948c0,0.315,0.064,0.664,0.19,1.04c-0.757,0.566-1.609,0.848-2.551,0.848H13.646
		c-1.267,0-2.333-0.437-3.214-1.321c-0.882-0.881-1.324-1.952-1.324-3.214v-3.972c0-2.267,0.567-4.382,1.702-6.333
		c1.134-1.957,2.676-3.498,4.629-4.634c1.954-1.135,4.068-1.699,6.337-1.699h1.608c2.203,1.005,4.505,1.51,6.9,1.51
		s4.697-0.505,6.904-1.51h1.604l1.043,0.092l-0.287,0.851c-0.253,0.816-0.219,1.641,0.097,2.458
		c0.314,0.819,0.853,1.453,1.609,1.894l0.756,0.375v0.757l-0.756,0.474c-0.757,0.44-1.295,1.056-1.609,1.843
		c-0.315,0.786-0.35,1.594-0.097,2.41c0.756,2.457,2.017,4.664,3.782,6.619c0.756,0.822,1.673,1.228,2.743,1.228
		c0.63,0,1.261-0.187,1.89-0.564l0.665-0.38h0.19C49.002,60.725,49.163,60.816,49.288,60.816z M30.284,39.45
		c-2.206,0-4.237-0.532-6.1-1.606c-1.86-1.073-3.321-2.538-4.397-4.396c-1.067-1.857-1.604-3.894-1.604-6.099
		c0-2.206,0.536-4.241,1.604-6.1c1.076-1.857,2.537-3.322,4.397-4.395c1.862-1.073,3.894-1.608,6.1-1.608s4.237,0.535,6.098,1.608
		c1.861,1.073,3.327,2.538,4.396,4.395c1.075,1.859,1.609,3.894,1.609,6.1c0,2.205-0.534,4.241-1.609,6.099
		c-1.069,1.859-2.535,3.323-4.396,4.396C34.521,38.917,32.49,39.45,30.284,39.45z M66.877,50.512l2.362,1.417
		c0.314,0.191,0.44,0.475,0.377,0.853c-0.63,2.016-1.697,3.813-3.214,5.389c-0.258,0.252-0.539,0.285-0.848,0.097l-2.368-1.325
		c-1.071,0.884-2.238,1.544-3.498,1.987v2.836c0,0.378-0.187,0.597-0.564,0.664c-2.085,0.439-4.163,0.439-6.243,0
		c-0.377-0.067-0.566-0.286-0.566-0.664v-2.836c-1.258-0.443-2.425-1.104-3.495-1.987l-2.464,1.325
		c-0.312,0.188-0.597,0.155-0.85-0.097c-1.448-1.575-2.486-3.373-3.118-5.389c-0.125-0.378,0-0.661,0.379-0.853l2.362-1.417
		c-0.252-1.322-0.252-2.646,0-3.968l-2.362-1.419c-0.318-0.189-0.439-0.474-0.379-0.851c0.632-2.018,1.67-3.814,3.118-5.39
		c0.253-0.252,0.538-0.315,0.85-0.189l2.464,1.417c1.07-0.881,2.237-1.543,3.495-1.985V35.29c0-0.379,0.189-0.597,0.566-0.661
		c2.08-0.443,4.158-0.443,6.243,0c0.378,0.064,0.564,0.282,0.564,0.661v2.837c1.26,0.441,2.427,1.104,3.498,1.985l2.368-1.325
		c0.309-0.189,0.59-0.155,0.848,0.097c1.517,1.576,2.584,3.373,3.214,5.39c0.063,0.377-0.063,0.661-0.377,0.851l-2.46,1.419
		C67.032,47.865,67.065,49.189,66.877,50.512z M56.002,53.064c1.26,0,2.351-0.438,3.264-1.321c0.911-0.885,1.371-1.953,1.371-3.217
		c0-1.262-0.46-2.349-1.371-3.261c-0.913-0.916-2.004-1.357-3.264-1.323c-1.259,0.03-2.336,0.486-3.218,1.372
		c-0.878,0.882-1.32,1.95-1.32,3.212c0,1.264,0.442,2.332,1.32,3.217C53.666,52.626,54.743,53.064,56.002,53.064z"/>
</g>
<g id="photo">
</g>
</svg>
